PathFileType  4	(X/Y/Z) C:\Users\antoi\Documents\MyRepositories\mobilecap\ResultsAnalysis
DataRate	CameraRate	NumFrames	NumMarkers	Units	OrigDataRate	OrigDataStartFrame	OrigNumFrames
100.0	100.0	4	51	mm	100.0	216	861
Frame#	Time	r_knee			r_shank_antsup			r_ankle			r_calc			r_5meta			r_toe			L_knee			L_shank_antsup			L_ankle			L_calc			L_5meta			L_toe			r_sh2			r_sh3			r_sh4			L_sh2			L_sh3			r_thigh1			r_thigh2			r_thigh3			r_thigh4			r_thigh5			L_thigh1			L_thigh2			L_thigh3			L_thigh4			r.ASIS			r.PSIS			L.ASIS			L.PSIS			C7			R_Shoulder			L_Shoulder			R_Sternum			L_Sternum			R_humerus			R_elbow_med			R_elbow_lat			R_forearm			R_wrist_radius			R_wrist_ulna			L_humerus			L_elbow_med			L_elbow_lat			L_forearm			L_wrist_radius			L_wrist_ulna			R_HJC			L_HJC			R_HJC_reg			L_HJC_reg			
		X1	Y1	Z1	X2	Y2	Z2	X3	Y3	Z3	X4	Y4	Z4	X5	Y5	Z5	X6	Y6	Z6	X7	Y7	Z7	X8	Y8	Z8	X9	Y9	Z9	X10	Y10	Z10	X11	Y11	Z11	X12	Y12	Z12	X13	Y13	Z13	X14	Y14	Z14	X15	Y15	Z15	X16	Y16	Z16	X17	Y17	Z17	X18	Y18	Z18	X19	Y19	Z19	X20	Y20	Z20	X21	Y21	Z21	X22	Y22	Z22	X23	Y23	Z23	X24	Y24	Z24	X25	Y25	Z25	X26	Y26	Z26	X27	Y27	Z27	X28	Y28	Z28	X29	Y29	Z29	X30	Y30	Z30	X31	Y31	Z31	X32	Y32	Z32	X33	Y33	Z33	X34	Y34	Z34	X35	Y35	Z35	X36	Y36	Z36	X37	Y37	Z37	X38	Y38	Z38	X39	Y39	Z39	X40	Y40	Z40	X41	Y41	Z41	X42	Y42	Z42	X43	Y43	Z43	X44	Y44	Z44	X45	Y45	Z45	X46	Y46	Z46	X47	Y47	Z47	X48	Y48	Z48	X49	Y49	Z49	X50	Y50	Z50	X51	Y51	Z51	

216	2.15000000	-174.60630	575.65492	-412.56478	-144.03532	439.05913	-387.21027	-294.61820	106.74053	-339.52568	-352.78531	71.01094	-396.33732	-165.45724	46.61140	-291.57629	-125.06395	73.59742	-341.25210	-183.81485	566.28815	-892.23311	-146.97894	374.13394	-896.94227	-314.83313	112.73772	-919.35374	-375.63559	72.21326	-860.71240	-185.67467	37.84955	-971.77312	-139.70919	67.71265	-916.34153	-174.38374	332.98220	-377.00399	-210.85629	457.92283	-359.53330	-243.95100	352.40246	-338.58814	-214.45467	409.61395	-946.26206	-258.30645	298.28068	-940.64390	-431.31036	715.45950	-430.12307	-322.80958	689.63642	-416.10146	-318.03233	622.41513	-400.80568	-460.34151	603.78089	-435.57686	-344.60252	576.14242	-419.92731	-427.63520	730.02869	-847.61492	-300.67108	690.97428	-871.35697	-469.59173	631.59501	-872.30861	-339.40850	593.80744	-903.66579	-489.70104	780.74556	-508.86051	-658.28141	847.67354	-604.45536	-498.06875	758.06155	-777.60902	-654.50421	846.78615	-692.55391	-238.08701	1140.74446	-638.25091	-153.87331	1084.38533	-506.54960	-164.70075	1104.64135	-771.74659	-174.47868	988.45987	-616.47094	-175.73585	984.35486	-659.82121	-6.36794	953.01842	-404.25337	35.48891	807.02007	-351.88163	51.94710	882.86141	-304.82960	166.41881	947.53425	-473.12822	207.60093	973.44711	-545.69565	237.68782	961.61267	-522.75129	1.44738	947.71070	-861.42811	4.71020	815.50890	-903.32013	43.84290	881.58973	-941.43998	172.86810	943.69899	-791.34713	205.87386	962.50679	-729.65734	229.84433	951.57721	-751.63177	-588.82372	705.35908	-539.14245	-595.95437	694.39783	-736.18526	-581.04281	704.34123	-549.87752	-573.41422	702.54883	-727.79569	
217	2.16000000	-172.37568	575.61635	-412.87863	-142.65267	438.68191	-387.35273	-294.52301	106.86066	-339.64989	-352.74110	71.08849	-396.31791	-165.42307	46.60389	-291.55484	-125.01483	73.52745	-341.18891	-180.53245	565.92942	-890.90651	-145.14645	373.29826	-895.80116	-314.56277	112.84085	-919.04477	-375.18908	72.15441	-860.76876	-185.68586	37.87298	-971.73318	-139.70070	67.68725	-916.34550	-173.12975	332.67560	-377.26711	-209.44585	457.72108	-359.74887	-242.84609	352.32054	-338.75897	-212.32064	409.13292	-945.26672	-256.86399	298.18198	-940.12622	-426.01255	720.93518	-431.00476	-318.16754	692.92645	-416.63243	-314.70052	625.71029	-401.23582	-457.30658	610.00260	-436.33110	-342.29090	580.15026	-420.19359	-420.76075	735.19319	-847.50630	-294.59618	693.12027	-870.56992	-464.76035	637.60329	-872.26327	-335.35613	596.84248	-902.92162	-486.54502	790.35205	-509.84999	-654.58908	857.17738	-605.17794	-494.09106	766.94845	-777.86024	-650.61146	856.16111	-693.35803	-237.85557	1154.50581	-638.78717	-153.30395	1098.50433	-506.59902	-164.42622	1118.64370	-772.90742	-172.97006	1002.76857	-616.63312	-173.69987	998.83925	-660.51106	-8.26877	963.32467	-402.63532	30.28052	815.98521	-350.15171	48.04742	891.72415	-303.29145	161.42488	954.89852	-472.88045	201.98507	980.54741	-545.72992	232.12755	968.27376	-522.81200	-1.03052	958.09369	-864.40416	-1.14135	826.78941	-907.62409	39.78883	891.79157	-944.69756	167.69243	951.98193	-793.23401	200.02874	970.23950	-730.82059	224.19671	959.31910	-753.03397	-585.47620	714.95439	-539.63458	-592.27382	703.57372	-736.66556	-577.62665	713.97553	-550.82877	-569.62210	711.93029	-728.26680	
218	2.17000000	-170.47490	575.69829	-412.79039	-141.64004	438.35421	-387.23151	-294.56177	106.91101	-339.82182	-352.70871	71.16509	-396.29681	-165.45308	46.49930	-291.47086	-124.97182	73.47415	-341.12981	-177.59462	565.70156	-889.81806	-143.56564	372.59289	-894.92875	-314.29762	112.95164	-918.76613	-374.81216	72.09982	-860.77025	-185.70839	37.92232	-971.69021	-139.74262	67.69824	-916.32899	-172.23548	332.40611	-377.26272	-208.23256	457.43249	-359.67263	-241.98339	351.96302	-338.44905	-210.52423	408.56511	-944.32247	-255.65144	297.91637	-939.50316	-420.88331	726.55150	-431.25337	-313.73096	696.16040	-416.60959	-311.69286	628.91768	-401.37342	-454.41610	616.32634	-437.08736	-340.07545	583.84677	-420.64172	-414.00335	740.45611	-847.77190	-288.70943	695.23512	-869.99406	-460.20651	643.65793	-872.19462	-331.63285	599.95944	-902.33639	-483.39479	800.29712	-510.77022	-651.03371	867.04485	-606.05688	-490.26978	775.96530	-778.22078	-646.87551	865.91999	-694.28887	-237.87432	1169.03007	-639.31862	-152.65300	1113.50173	-506.76108	-164.02252	1133.73518	-773.97363	-171.31111	1017.96318	-617.06409	-171.90043	1014.10813	-661.11354	-10.40930	973.99200	-400.66355	24.50541	825.49275	-348.25034	43.56153	900.98810	-301.57011	156.12385	962.39978	-472.40066	196.02228	987.54217	-545.43520	226.20629	975.06602	-522.84650	-3.60556	969.08710	-867.69279	-7.12040	838.53501	-911.94216	35.26818	902.63569	-948.06586	162.12198	960.62345	-795.25841	193.83894	978.45789	-732.34978	218.12835	967.35324	-754.51125	-582.28980	724.94720	-540.12647	-588.78815	712.99569	-737.13381	-574.30871	723.75868	-551.73053	-565.96308	721.50090	-728.82446	
219	2.18000000	-169.05044	575.92464	-412.27129	-141.02946	438.07602	-386.92822	-294.61268	106.90912	-339.87675	-352.69787	71.22336	-396.26621	-165.51095	46.33452	-291.36176	-124.97569	73.44791	-341.08416	-175.02116	565.58867	-889.15557	-142.34962	371.95171	-894.27240	-314.13339	113.05915	-918.55860	-374.62218	72.00242	-860.64299	-185.73559	37.98658	-971.69409	-139.79589	67.70197	-916.31136	-171.90887	332.26752	-376.84657	-207.47439	457.35374	-359.10913	-241.60433	351.85616	-338.04249	-209.08243	408.15953	-943.52744	-254.68300	297.62263	-938.80996	-415.80617	732.26122	-431.13224	-309.49030	699.50226	-416.25575	-308.99567	631.98867	-401.24695	-451.76420	622.79862	-437.93840	-338.06465	587.30426	-421.35685	-407.40685	745.86430	-848.40394	-283.09890	697.43380	-869.76735	-455.83712	649.85765	-872.22364	-328.22855	603.15425	-901.93515	-480.45511	810.51521	-511.39930	-647.69831	877.26771	-607.06325	-486.40990	785.48333	-778.65161	-643.22944	875.99913	-695.38769	-238.11906	1184.26695	-639.98253	-151.96677	1129.43473	-506.86430	-163.52088	1149.79410	-775.03306	-168.74833	1033.74778	-617.86517	-170.23048	1030.08743	-661.72611	-12.73030	985.09998	-398.55838	17.96218	835.62869	-346.36688	38.57920	910.78926	-299.75752	150.43122	970.10836	-471.57118	189.74650	994.65607	-545.09934	219.91137	981.96080	-522.74619	-6.32805	980.73936	-871.23677	-13.01834	850.68736	-916.24533	30.45884	914.20372	-951.61405	156.36798	969.72854	-797.31880	187.38770	986.96596	-734.04889	211.79210	975.67658	-755.83683	-579.32767	735.22686	-540.72659	-585.25715	722.83128	-737.72418	-571.28437	733.90144	-552.51693	-562.33051	731.35966	-729.47391	
